<?xml version="1.0" encoding="utf-8"?>
<!-- Generator: Adobe Illustrator 26.0.1, SVG Export Plug-In . SVG Version: 6.00 Build 0)  -->
<svg version="1.1" id="Layer_1" xmlns="http://www.w3.org/2000/svg" xmlns:xlink="http://www.w3.org/1999/xlink" x="0px" y="0px"
	 viewBox="0 0 264.01 177.97" style="enable-background:new 0 0 264.01 177.97;" xml:space="preserve">
<style type="text/css">
	.st0{fill-rule:evenodd;clip-rule:evenodd;fill:#DADADA;}
	.st1{fill-rule:evenodd;clip-rule:evenodd;fill:#4D8DCB;}
	.st2{opacity:0.3;fill-rule:evenodd;clip-rule:evenodd;}
	.st3{fill-rule:evenodd;clip-rule:evenodd;fill:#E30613;}
	.st4{fill:#FFFFFF;}
</style>
<g>
	<path class="st0" d="M124.33,57.57c-17.42,0-31.56,13.58-31.56,30.3c0,16.72,14.14,30.3,31.56,30.3c17.42,0,31.56-13.58,31.56-30.3
		C155.9,71.14,141.75,57.57,124.33,57.57L124.33,57.57z M124.33,69.69c10.45,0,18.94,8.14,18.94,18.18
		c0,10.04-8.48,18.18-18.94,18.18c-10.45,0-18.94-8.14-18.94-18.18C105.4,77.83,113.88,69.69,124.33,69.69L124.33,69.69z
		 M124.33,69.69"/>
	<path class="st0" d="M98.66,25.12l1.67-17.82c0.25-2.65,2.27-4.83,4.98-5.38c12.55-2.56,25.51-2.56,38.06,0
		c2.71,0.55,4.73,2.74,4.98,5.38l1.67,17.82c6.52,2.46,12.62,5.83,18.09,10.02l16.91-7.52c2.51-1.12,5.49-0.53,7.34,1.44
		c8.58,9.15,15.07,19.93,19.03,31.64c0.86,2.53-0.11,5.3-2.37,6.83l-15.24,10.3c1.04,6.65,1.04,13.41,0,20.05l15.24,10.3
		c2.26,1.53,3.23,4.3,2.37,6.83c-3.96,11.71-10.45,22.49-19.03,31.64c-1.85,1.98-4.83,2.56-7.34,1.44l-16.91-7.52
		c-5.48,4.19-11.57,7.57-18.09,10.03l-1.67,17.82c-0.25,2.65-2.27,4.83-4.98,5.38c-12.55,2.56-25.51,2.56-38.06,0
		c-2.71-0.55-4.73-2.74-4.98-5.38l-1.67-17.82c-6.52-2.46-12.62-5.84-18.09-10.03l-16.91,7.52c-2.51,1.12-5.49,0.53-7.34-1.44
		c-8.58-9.15-15.07-19.93-19.03-31.64c-0.86-2.53,0.11-5.3,2.37-6.83l15.24-10.3c-1.04-6.65-1.04-13.41,0-20.05l-15.24-10.3
		c-2.26-1.53-3.23-4.3-2.37-6.83C41.25,49,47.73,38.22,56.32,29.07c1.85-1.98,4.83-2.56,7.34-1.44l16.91,7.52
		C86.04,30.95,92.14,27.58,98.66,25.12L98.66,25.12z M136.19,12.98c-7.86-1.15-15.86-1.15-23.72,0l-1.6,17.07
		c-0.22,2.42-1.93,4.47-4.34,5.22c-7.68,2.4-14.74,6.31-20.74,11.5c-1.88,1.62-4.58,2.01-6.88,0.99l-16.2-7.21
		c-4.97,5.96-8.97,12.61-11.86,19.72l14.6,9.87c2.07,1.4,3.06,3.84,2.54,6.22c-1.68,7.58-1.68,15.41,0,22.99
		c0.52,2.38-0.47,4.82-2.54,6.22l-14.6,9.87c2.89,7.11,6.89,13.76,11.86,19.72l16.2-7.21c2.29-1.02,5-0.63,6.88,0.99
		c6,5.19,13.07,9.1,20.74,11.5c2.41,0.75,4.11,2.8,4.34,5.22l1.6,17.07c7.86,1.15,15.86,1.15,23.72,0l1.6-17.07
		c0.22-2.42,1.93-4.47,4.34-5.22c7.68-2.4,14.74-6.31,20.74-11.5c1.88-1.62,4.58-2.01,6.88-0.99l16.2,7.21
		c4.97-5.96,8.97-12.61,11.86-19.72l-14.6-9.87c-2.07-1.4-3.06-3.84-2.54-6.22c1.68-7.58,1.68-15.41,0-22.99
		c-0.52-2.38,0.47-4.82,2.54-6.22l14.6-9.87c-2.89-7.11-6.89-13.76-11.86-19.72l-16.2,7.21c-2.29,1.02-5,0.63-6.88-0.99
		c-6-5.19-13.07-9.1-20.74-11.5c-2.41-0.75-4.11-2.8-4.34-5.22L136.19,12.98z M136.19,12.98"/>
</g>
<rect x="23.62" y="38.89" class="st1" width="35.62" height="35.62"/>
<rect x="88.14" y="38.89" class="st1" width="35.62" height="35.62"/>
<rect x="153.34" y="38.89" class="st1" width="35.62" height="35.62"/>
<rect x="56.82" y="42.65" class="st2" width="35.62" height="35.62"/>
<rect x="121.48" y="42.65" class="st2" width="35.62" height="35.62"/>
<rect x="183.1" y="43.19" class="st2" width="35.62" height="35.62"/>
<rect x="184.58" y="44.26" class="st3" width="35.62" height="35.62"/>
<rect x="58.3" y="43.72" class="st3" width="35.62" height="35.62"/>
<rect x="122.96" y="43.72" class="st3" width="35.62" height="35.62"/>
<rect x="37.88" y="85.19" class="st1" width="40.98" height="40.98"/>
<rect x="112.11" y="85.19" class="st1" width="40.98" height="40.98"/>
<rect x="187.1" y="85.19" class="st1" width="40.98" height="40.98"/>
<rect y="90.14" class="st2" width="40.98" height="40.98"/>
<rect x="76.08" y="89.52" class="st2" width="40.98" height="40.98"/>
<rect x="150.46" y="89.52" class="st2" width="40.98" height="40.98"/>
<rect x="1.7" y="91.38" class="st3" width="40.98" height="40.98"/>
<rect x="221.34" y="90.14" class="st2" width="40.98" height="40.98"/>
<rect x="223.04" y="91.38" class="st3" width="40.98" height="40.98"/>
<rect x="77.78" y="90.76" class="st3" width="40.98" height="40.98"/>
<rect x="152.16" y="90.76" class="st3" width="40.98" height="40.98"/>
<path class="st4" d="M36.1,55.4c0.52-1.22,1.03-2.41,1.53-3.54c0.5-1.14,0.97-2.18,1.4-3.11c0.43-0.93,0.79-1.62,1.06-2.07
	c0.2-0.37,0.43-0.61,0.68-0.71c0.25-0.1,0.62-0.09,1.11,0.03c0.49,0.1,0.9,0.21,1.24,0.33c0.33,0.12,0.73,0.27,1.19,0.46
	c0.25,0.1,0.45,0.2,0.57,0.31c0.13,0.1,0.22,0.22,0.28,0.36s0.09,0.3,0.1,0.48c0.01,0.19,0.01,0.41,0.01,0.66
	c0,0.29-0.03,0.78-0.08,1.48c-0.05,0.7-0.11,1.51-0.18,2.45c-0.07,0.94-0.14,1.93-0.22,2.98c-0.08,1.05-0.15,2.08-0.22,3.09
	c0.36-0.83,0.74-1.71,1.16-2.64c0.42-0.93,0.84-1.86,1.26-2.79c0.42-0.93,0.85-1.85,1.26-2.74c0.42-0.89,0.81-1.73,1.17-2.51
	c0.37-0.78,0.7-1.48,0.99-2.1c0.3-0.62,0.55-1.13,0.75-1.52c0.25-0.53,0.51-0.82,0.76-0.88c0.26-0.06,0.65,0.02,1.2,0.24
	c0.39,0.19,0.78,0.4,1.16,0.62s0.75,0.49,1.11,0.78c0.39,0.37,0.58,0.77,0.56,1.2c-0.02,0.43-0.13,0.86-0.33,1.3
	c-0.43,0.78-0.89,1.67-1.4,2.68c-0.51,1-1.03,2.05-1.56,3.14c-0.53,1.09-1.06,2.2-1.59,3.33c-0.54,1.13-1.05,2.23-1.53,3.29
	c-0.48,1.06-0.94,2.06-1.36,3c-0.43,0.94-0.79,1.75-1.1,2.45c-0.17,0.32-0.4,0.53-0.69,0.61c-0.29,0.08-0.71,0.08-1.25,0
	c-0.31-0.05-0.57-0.11-0.79-0.17c-0.22-0.06-0.43-0.11-0.62-0.17c-0.2-0.05-0.39-0.11-0.59-0.17c-0.2-0.06-0.41-0.11-0.65-0.17
	c-0.48-0.17-0.82-0.4-1.02-0.7c-0.2-0.3-0.34-0.62-0.41-0.98c-0.05-0.36-0.11-0.79-0.19-1.3c-0.08-0.51-0.15-1.07-0.22-1.67
	c-0.07-0.6-0.13-1.22-0.19-1.85c-0.06-0.63-0.09-1.24-0.09-1.84c-0.39,0.75-0.79,1.53-1.2,2.33c-0.41,0.81-0.79,1.59-1.16,2.36
	c-0.37,0.77-0.7,1.48-1.01,2.13c-0.31,0.65-0.55,1.19-0.74,1.62c-0.2,0.34-0.42,0.54-0.65,0.6s-0.54,0.06-0.93,0.01
	c-0.53-0.08-1.03-0.19-1.52-0.32c-0.48-0.13-0.95-0.26-1.39-0.4c-0.41-0.14-0.7-0.32-0.88-0.55c-0.18-0.23-0.29-0.58-0.34-1.06
	c-0.14-0.7-0.26-1.5-0.37-2.41c-0.11-0.91-0.21-1.88-0.29-2.92c-0.08-1.09-0.16-2.23-0.23-3.42c-0.07-1.19-0.13-2.38-0.18-3.56
	c-0.05-1.18-0.08-2.34-0.1-3.47c-0.02-1.13-0.03-2.18-0.03-3.15c0.02-0.54,0.12-0.89,0.31-1.05c0.19-0.15,0.55-0.17,1.1-0.05
	c0.63,0.14,1.2,0.28,1.71,0.42c0.51,0.14,0.99,0.34,1.43,0.6c0.25,0.15,0.46,0.34,0.61,0.56c0.15,0.22,0.27,0.46,0.34,0.7
	c0.08,0.25,0.12,0.5,0.14,0.77c0.02,0.26,0.02,0.51,0,0.73c-0.02,0.44-0.05,1.09-0.09,1.94c-0.04,0.85-0.09,1.8-0.13,2.84
	c-0.04,1.05-0.08,2.13-0.1,3.26c-0.03,1.13-0.04,2.21-0.04,3.23C35.1,57.75,35.58,56.62,36.1,55.4z"/>
<path class="st4" d="M75.92,67.64c-1.27,0.18-2.38,0.4-3.35,0.65c-0.34,0.66-0.64,1.28-0.89,1.85c-0.25,0.57-0.5,1.13-0.74,1.67
	c-0.14,0.29-0.3,0.46-0.5,0.51c-0.2,0.05-0.49,0.01-0.88-0.13c-0.22-0.08-0.46-0.18-0.73-0.29s-0.53-0.23-0.8-0.37
	c-0.2-0.14-0.38-0.25-0.54-0.34c-0.15-0.09-0.27-0.21-0.36-0.34c-0.08-0.14-0.13-0.31-0.14-0.52c-0.01-0.21,0.04-0.5,0.14-0.85
	c0.41-1.17,0.94-2.55,1.59-4.13c0.65-1.58,1.36-3.21,2.12-4.9c0.76-1.68,1.53-3.34,2.32-4.99c0.79-1.64,1.54-3.1,2.26-4.37
	c0.25-0.46,0.59-0.83,0.99-1.12c0.41-0.29,1.01-0.4,1.81-0.33c0.7,0.03,1.32,0.09,1.86,0.17c0.54,0.08,1.04,0.17,1.49,0.27
	c0.45,0.1,0.87,0.21,1.25,0.33c0.38,0.12,0.77,0.23,1.16,0.33c0.53,0.19,0.86,0.43,1.01,0.74c0.14,0.31,0.19,0.71,0.14,1.2
	c-0.1,1.21-0.19,2.59-0.25,4.16c-0.07,1.56-0.12,3.2-0.15,4.9s-0.06,3.4-0.06,5.11c-0.01,1.71,0,3.29,0.01,4.76
	c0,0.31-0.06,0.52-0.19,0.64s-0.41,0.18-0.85,0.18c-0.44,0-0.85-0.01-1.22-0.04c-0.37-0.03-0.76-0.11-1.15-0.24
	c-0.41-0.12-0.69-0.27-0.85-0.46c-0.16-0.19-0.28-0.52-0.34-0.99c-0.07-0.49-0.13-1.03-0.18-1.62c-0.05-0.59-0.1-1.23-0.15-1.93
	C78.46,67.29,77.19,67.46,75.92,67.64z M77.17,63.24c0.77-0.08,1.55-0.15,2.33-0.2c-0.03-1.39-0.06-2.78-0.08-4.17
	c-0.02-1.39-0.01-2.76,0.03-4.12c-0.68,1.24-1.42,2.61-2.21,4.12s-1.59,3.06-2.38,4.68C75.63,63.43,76.4,63.33,77.17,63.24z"/>
<path class="st4" d="M107.96,64.76c-1.13,0.21-2.21,0.42-3.23,0.62c-0.37,0.1-0.69,0.16-0.94,0.18s-0.48,0-0.66-0.04
	c-0.19-0.04-0.34-0.1-0.47-0.17c-0.13-0.07-0.25-0.15-0.37-0.23c-0.29-0.19-0.55-0.38-0.79-0.57s-0.55-0.45-0.94-0.75
	c-0.29-0.24-0.51-0.51-0.66-0.8s-0.2-0.66-0.13-1.08c0.05-0.66,0.14-1.45,0.25-2.36c0.12-0.91,0.26-1.89,0.43-2.95
	c0.17-1.05,0.36-2.15,0.56-3.28s0.42-2.26,0.66-3.38c0.24-1.12,0.48-2.2,0.73-3.24c0.25-1.04,0.49-1.99,0.73-2.86
	c0.17-0.49,0.39-0.79,0.65-0.88c0.26-0.09,0.66-0.06,1.19,0.09c0.53,0.14,1.1,0.33,1.71,0.57c0.61,0.25,1.15,0.52,1.61,0.83
	c0.44,0.32,0.72,0.6,0.83,0.84c0.11,0.24,0.09,0.58-0.06,1.02c-0.34,1.02-0.68,2.14-1.03,3.37c-0.35,1.22-0.7,2.48-1.05,3.77
	c-0.35,1.29-0.68,2.58-0.99,3.86c-0.31,1.28-0.61,2.51-0.88,3.68c0.78-0.14,1.51-0.24,2.19-0.31c0.68-0.07,1.42-0.13,2.22-0.18
	c0.48-0.03,0.84,0,1.08,0.09c0.25,0.09,0.47,0.3,0.68,0.62c0.2,0.31,0.37,0.62,0.5,0.93s0.23,0.62,0.29,0.91
	c0.12,0.36,0.15,0.6,0.09,0.71c-0.06,0.12-0.35,0.23-0.88,0.33C110.2,64.34,109.09,64.54,107.96,64.76z"/>
<path class="st4" d="M141.3,71.51c-1.13,0.21-2.21,0.42-3.23,0.62c-0.37,0.1-0.69,0.16-0.94,0.18s-0.48,0-0.66-0.04
	c-0.19-0.04-0.34-0.1-0.47-0.17c-0.13-0.07-0.25-0.15-0.37-0.23c-0.29-0.19-0.55-0.38-0.79-0.57s-0.55-0.45-0.94-0.75
	c-0.29-0.24-0.51-0.51-0.66-0.8s-0.2-0.66-0.13-1.08c0.05-0.66,0.14-1.45,0.25-2.36c0.12-0.91,0.26-1.89,0.43-2.95
	c0.17-1.05,0.36-2.15,0.56-3.28s0.42-2.26,0.66-3.38c0.24-1.12,0.48-2.2,0.73-3.24c0.25-1.04,0.49-1.99,0.73-2.86
	c0.17-0.49,0.39-0.79,0.65-0.88c0.26-0.09,0.66-0.06,1.19,0.09c0.53,0.14,1.1,0.33,1.71,0.57c0.61,0.25,1.15,0.52,1.61,0.83
	c0.44,0.32,0.72,0.6,0.83,0.84c0.11,0.24,0.09,0.58-0.06,1.02c-0.34,1.02-0.68,2.14-1.03,3.37c-0.35,1.22-0.7,2.48-1.05,3.77
	c-0.35,1.29-0.68,2.58-0.99,3.86c-0.31,1.28-0.61,2.51-0.88,3.68c0.78-0.14,1.51-0.24,2.19-0.31c0.68-0.07,1.42-0.13,2.22-0.18
	c0.48-0.03,0.84,0,1.08,0.09c0.25,0.09,0.47,0.3,0.68,0.62c0.2,0.31,0.37,0.62,0.5,0.93s0.23,0.62,0.29,0.91
	c0.12,0.36,0.15,0.6,0.09,0.71c-0.06,0.12-0.35,0.23-0.88,0.33C143.53,71.09,142.43,71.3,141.3,71.51z"/>
<path class="st4" d="M178.23,51.71c-0.57,0.95-1.21,1.98-1.93,3.09c-0.71,1.1-1.47,2.24-2.27,3.42c-0.8,1.17-1.57,2.29-2.32,3.37
	c-0.29,1.14-0.54,2.2-0.74,3.17c-0.2,0.98-0.4,1.93-0.59,2.84c-0.09,0.34-0.2,0.54-0.36,0.61c-0.15,0.07-0.45,0.05-0.89-0.05
	c-0.41-0.1-0.83-0.23-1.27-0.37c-0.44-0.14-0.85-0.29-1.22-0.45c-0.37-0.24-0.62-0.47-0.74-0.7c-0.12-0.23-0.16-0.56-0.13-1.01
	c0.12-0.73,0.23-1.58,0.33-2.54c0.1-0.96,0.26-2.03,0.46-3.2c-0.36-1.02-0.74-2.1-1.15-3.24c-0.41-1.14-0.82-2.28-1.22-3.43
	c-0.41-1.15-0.8-2.27-1.19-3.37c-0.38-1.1-0.73-2.12-1.03-3.07c-0.19-0.46-0.23-0.77-0.14-0.93c0.09-0.16,0.36-0.28,0.8-0.37
	c0.53-0.03,1.03-0.06,1.52-0.09s0.98,0.02,1.49,0.14c0.51,0.12,0.88,0.31,1.11,0.57c0.23,0.26,0.48,0.67,0.75,1.21
	c0.39,1.02,0.8,2.18,1.22,3.49c0.42,1.31,0.87,2.69,1.33,4.16c0.92-1.46,1.82-2.96,2.7-4.49c0.88-1.53,1.77-3.09,2.65-4.67
	c0.15-0.42,0.4-0.65,0.74-0.68c0.34-0.03,0.71,0.06,1.1,0.25c0.39,0.2,0.78,0.46,1.16,0.78c0.38,0.32,0.71,0.61,0.98,0.87
	c0.15,0.19,0.27,0.36,0.36,0.52s0.13,0.33,0.14,0.5c0.01,0.17-0.02,0.35-0.09,0.55c-0.07,0.2-0.16,0.43-0.28,0.7
	C179.23,49.96,178.8,50.76,178.23,51.71z"/>
<path class="st4" d="M194.95,67.76c0.34-0.06,0.68-0.08,1.03-0.05s0.68,0.09,0.99,0.18c0.31,0.09,0.6,0.23,0.85,0.4
	c1.43,0.87,2.67,1.43,3.74,1.68c1.06,0.25,1.83,0.2,2.31-0.18c0.19-0.12,0.23-0.28,0.11-0.48c-0.11-0.2-0.32-0.43-0.64-0.68
	c-0.31-0.25-0.71-0.52-1.17-0.82c-0.47-0.3-0.96-0.61-1.48-0.93s-1.04-0.65-1.56-0.99c-0.52-0.34-0.99-0.69-1.42-1.05
	c-0.46-0.37-0.87-0.79-1.24-1.26c-0.37-0.47-0.65-0.98-0.85-1.53c-0.2-0.55-0.31-1.14-0.33-1.77c-0.02-0.63,0.09-1.28,0.31-1.96
	c0.15-0.58,0.41-1.2,0.78-1.86c0.37-0.66,0.79-1.31,1.29-1.94c0.49-0.63,1.04-1.22,1.63-1.76c0.59-0.54,1.2-1,1.81-1.38
	c0.22-0.15,0.49-0.3,0.82-0.45c0.32-0.14,0.68-0.25,1.08-0.32s0.83-0.09,1.3-0.06c0.47,0.03,0.96,0.11,1.47,0.27
	c0.76,0.27,1.53,0.6,2.29,0.99c0.76,0.39,1.4,0.83,1.91,1.33c0.34,0.31,0.6,0.62,0.78,0.93c0.18,0.31,0.31,0.62,0.38,0.93
	c0.08,0.31,0.12,0.6,0.13,0.88c0.01,0.28,0.01,0.55,0.01,0.8c-0.05,0.46-0.14,0.96-0.26,1.5c-0.12,0.54-0.25,1.09-0.41,1.64
	c-0.15,0.55-0.32,1.08-0.51,1.59s-0.37,0.95-0.56,1.33c-0.19,0.34-0.39,0.55-0.61,0.64c-0.22,0.09-0.53,0.05-0.92-0.1
	c-2.31-0.82-3.38-1.93-3.21-3.34c0.02-0.29,0.07-0.62,0.17-1.01c0.09-0.38,0.19-0.76,0.28-1.15c0.09-0.38,0.17-0.75,0.24-1.1
	c0.07-0.35,0.09-0.63,0.06-0.85c-0.03-0.22-0.11-0.35-0.24-0.38c-0.14-0.03-0.37,0.06-0.69,0.28c-0.27,0.15-0.58,0.38-0.92,0.69
	c-0.34,0.31-0.67,0.65-0.98,1.05c-0.31,0.39-0.6,0.82-0.84,1.27c-0.25,0.46-0.41,0.92-0.5,1.38s-0.08,0.91,0.03,1.35
	c0.1,0.44,0.35,0.83,0.74,1.17c0.49,0.46,1.04,0.89,1.64,1.3c0.6,0.41,1.21,0.8,1.81,1.19c0.6,0.38,1.17,0.76,1.71,1.13
	c0.54,0.37,0.98,0.76,1.33,1.16c0.35,0.4,0.57,0.82,0.66,1.25c0.09,0.43,0,0.9-0.27,1.39c-0.17,0.36-0.41,0.74-0.71,1.15
	c-0.31,0.41-0.71,0.79-1.22,1.13c-0.51,0.35-1.13,0.64-1.86,0.88c-0.73,0.24-1.61,0.37-2.63,0.38c-1.36,0.03-2.69-0.21-3.98-0.73
	c-1.29-0.52-2.63-1.42-4-2.69c-0.73-0.63-1.11-1.1-1.15-1.4c0-0.32,0.16-0.58,0.48-0.76C194.28,67.91,194.61,67.82,194.95,67.76z"/>
<path class="st4" d="M14.35,112.64c0.62-1.46,1.23-2.87,1.82-4.22c0.6-1.36,1.15-2.59,1.67-3.71c0.52-1.11,0.94-1.93,1.26-2.46
	c0.24-0.45,0.51-0.73,0.81-0.85c0.29-0.12,0.73-0.11,1.32,0.03c0.59,0.12,1.08,0.25,1.47,0.39c0.4,0.14,0.87,0.32,1.41,0.55
	c0.3,0.12,0.53,0.24,0.68,0.37c0.15,0.12,0.26,0.26,0.33,0.42c0.07,0.16,0.11,0.35,0.12,0.58c0.01,0.22,0.02,0.49,0.02,0.79
	c0,0.34-0.03,0.93-0.09,1.76c-0.06,0.83-0.13,1.8-0.21,2.92c-0.08,1.11-0.17,2.3-0.26,3.55c-0.09,1.26-0.18,2.48-0.26,3.68
	c0.43-0.99,0.89-2.04,1.38-3.15c0.5-1.1,1-2.21,1.5-3.33c0.51-1.11,1.01-2.2,1.5-3.27s0.96-2.06,1.4-2.99
	c0.44-0.93,0.83-1.77,1.18-2.51c0.35-0.74,0.65-1.34,0.9-1.81c0.3-0.63,0.61-0.98,0.91-1.05c0.3-0.07,0.78,0.03,1.43,0.29
	c0.47,0.22,0.93,0.47,1.38,0.74c0.46,0.27,0.9,0.58,1.32,0.93c0.47,0.45,0.69,0.92,0.67,1.43c-0.02,0.51-0.15,1.02-0.4,1.55
	c-0.51,0.93-1.06,2-1.67,3.19c-0.61,1.2-1.23,2.44-1.85,3.74c-0.63,1.3-1.26,2.62-1.9,3.97c-0.64,1.35-1.25,2.65-1.82,3.92
	c-0.58,1.27-1.12,2.46-1.63,3.57c-0.51,1.11-0.94,2.09-1.31,2.92c-0.2,0.38-0.48,0.63-0.82,0.73c-0.34,0.1-0.84,0.1-1.49,0
	c-0.36-0.06-0.68-0.13-0.94-0.2c-0.26-0.07-0.51-0.14-0.74-0.2c-0.23-0.06-0.47-0.13-0.7-0.2c-0.23-0.07-0.49-0.14-0.77-0.2
	c-0.57-0.2-0.97-0.48-1.22-0.84c-0.24-0.35-0.41-0.74-0.49-1.17c-0.06-0.42-0.14-0.94-0.23-1.55c-0.09-0.61-0.18-1.27-0.26-1.99
	c-0.08-0.72-0.16-1.45-0.23-2.2c-0.07-0.75-0.11-1.48-0.11-2.19c-0.47,0.89-0.94,1.82-1.43,2.78c-0.49,0.96-0.95,1.9-1.38,2.81
	c-0.44,0.91-0.84,1.76-1.2,2.54c-0.36,0.78-0.66,1.42-0.88,1.93c-0.24,0.4-0.5,0.64-0.77,0.71c-0.27,0.07-0.64,0.08-1.11,0.02
	c-0.63-0.1-1.23-0.23-1.81-0.38c-0.58-0.15-1.13-0.31-1.66-0.47c-0.49-0.16-0.84-0.38-1.05-0.65c-0.21-0.27-0.35-0.69-0.41-1.26
	c-0.16-0.83-0.31-1.79-0.44-2.87c-0.13-1.08-0.25-2.24-0.35-3.48c-0.1-1.3-0.19-2.65-0.27-4.07c-0.08-1.42-0.15-2.83-0.21-4.24
	c-0.06-1.41-0.1-2.78-0.12-4.13s-0.03-2.6-0.03-3.75c0.02-0.65,0.14-1.06,0.36-1.25c0.22-0.18,0.66-0.2,1.31-0.06
	c0.75,0.16,1.43,0.33,2.04,0.5c0.61,0.17,1.17,0.41,1.7,0.71c0.3,0.18,0.55,0.4,0.73,0.67c0.18,0.26,0.32,0.54,0.41,0.84
	c0.09,0.29,0.15,0.6,0.17,0.91c0.02,0.32,0.02,0.6,0,0.87c-0.02,0.53-0.06,1.3-0.11,2.31c-0.05,1.01-0.1,2.14-0.15,3.39
	c-0.05,1.25-0.09,2.54-0.12,3.89s-0.05,2.63-0.05,3.84C13.16,115.44,13.73,114.1,14.35,112.64z"/>
<path class="st4" d="M64.74,95.3c0.11,0.28,0.1,0.7-0.05,1.25c-0.28,0.91-0.59,1.95-0.93,3.13c-0.33,1.18-0.67,2.42-1,3.72
	c-0.33,1.31-0.66,2.64-0.99,4.01c-0.32,1.37-0.64,2.7-0.94,4.01c-0.3,1.31-0.58,2.54-0.84,3.71c-0.25,1.16-0.47,2.2-0.65,3.11
	c-0.1,0.34-0.24,0.57-0.41,0.67c-0.17,0.1-0.52,0.09-1.05-0.03c-0.53-0.14-1.03-0.28-1.5-0.43c-0.48-0.14-0.93-0.32-1.35-0.55
	c-0.47-0.22-0.77-0.48-0.93-0.77c-0.15-0.29-0.2-0.7-0.14-1.23c0.04-0.71,0.13-1.63,0.26-2.75c0.13-1.12,0.29-2.36,0.49-3.69
	c0.19-1.34,0.41-2.74,0.65-4.22c0.24-1.48,0.49-2.93,0.74-4.34c0.25-1.42,0.51-2.76,0.77-4.03c0.26-1.27,0.51-2.37,0.73-3.33
	c0.18-0.59,0.43-0.95,0.74-1.08c0.31-0.13,0.78-0.11,1.41,0.08c0.63,0.16,1.31,0.41,2.04,0.73c0.73,0.32,1.37,0.67,1.91,1.03
	C64.29,94.69,64.63,95.02,64.74,95.3z"/>
<path class="st4" d="M91.91,100.14c1.04-0.37,2.15-0.66,3.33-0.85c1.17-0.19,2.37-0.26,3.6-0.21c1.23,0.05,2.41,0.28,3.55,0.7
	c1.14,0.42,2.2,1.04,3.18,1.87c0.97,0.83,1.79,1.93,2.46,3.31c0.57,1.09,0.92,2.29,1.06,3.58c0.14,1.3,0.07,2.63-0.23,4
	c-0.29,1.37-0.81,2.73-1.53,4.09c-0.73,1.36-1.68,2.63-2.84,3.83c-1.17,1.19-2.55,2.27-4.15,3.22c-1.6,0.95-3.41,1.71-5.44,2.28
	c-1.03,0.36-2.12,0.27-3.25-0.27c-0.57-0.28-1.06-0.56-1.49-0.84c-0.43-0.27-0.91-0.61-1.46-1.02c-0.2-0.18-0.4-0.36-0.58-0.53
	c-0.18-0.17-0.34-0.37-0.47-0.59c-0.13-0.22-0.22-0.5-0.26-0.82c-0.04-0.32-0.03-0.74,0.03-1.25l1.76-19.29
	C89.96,100.91,90.87,100.51,91.91,100.14z M97.33,118.76c1.13-0.94,2.07-1.93,2.8-2.96c0.73-1.03,1.28-2.07,1.64-3.1
	c0.36-1.03,0.58-1.99,0.64-2.89c0.08-1.24-0.06-2.2-0.43-2.89c-0.36-0.69-1-1.2-1.91-1.55c-0.91-0.34-2.03-0.3-3.34,0.12
	c-0.71,2.65-1.34,5.27-1.88,7.85c-0.55,2.58-1.07,5.19-1.58,7.82C94.84,120.51,96.2,119.71,97.33,118.76z"/>
<path class="st4" d="M143.97,104.89c-0.19,0.13-0.54,0.18-1.05,0.14c-1.42-0.2-2.46-0.62-3.11-1.25c-0.66-0.63-1.04-1.46-1.14-2.49
	c-0.04-0.2-0.07-0.4-0.08-0.59c-0.01-0.19-0.01-0.4,0.02-0.62c0-0.22-0.01-0.44-0.03-0.64c-0.02-0.2-0.04-0.4-0.06-0.61
	c-0.08-0.39-0.16-0.71-0.23-0.97c-0.07-0.26-0.21-0.43-0.41-0.49c-0.41-0.12-0.89,0.05-1.44,0.5c-0.56,0.46-1.12,1.11-1.7,1.96
	c-0.58,0.85-1.14,1.84-1.69,2.96c-0.55,1.12-1.01,2.29-1.4,3.51c-0.34,0.97-0.59,1.97-0.74,2.99s-0.21,1.97-0.17,2.84
	c0.04,0.87,0.18,1.62,0.43,2.23c0.24,0.62,0.58,1,1,1.14c0.36,0.12,0.74,0.09,1.14-0.09c0.4-0.18,0.78-0.47,1.17-0.88
	c0.38-0.4,0.76-0.9,1.12-1.47c0.36-0.58,0.71-1.2,1.03-1.87c-1.22,0.06-2.15-0.15-2.81-0.64c-0.66-0.49-1.18-1.31-1.56-2.46
	c-0.08-0.26-0.08-0.47,0.02-0.62c0.09-0.15,0.25-0.27,0.47-0.36s0.5-0.16,0.82-0.21c0.32-0.05,0.69-0.11,1.09-0.17
	c0.75-0.16,1.53-0.29,2.34-0.38c0.81-0.09,1.51-0.19,2.1-0.29c0.69-0.1,1.25-0.1,1.67,0.02c0.43,0.11,0.82,0.37,1.19,0.77
	c0.24,0.26,0.47,0.54,0.68,0.82c0.21,0.28,0.41,0.55,0.59,0.79c0.34,0.47,0.52,0.88,0.53,1.25c0.01,0.37-0.08,0.81-0.26,1.34
	c-0.75,1.82-1.61,3.35-2.58,4.59c-0.97,1.24-2.03,2.19-3.16,2.86c-0.73,0.4-1.5,0.67-2.31,0.81c-0.81,0.13-1.66,0.14-2.55,0.02
	c-1.56-0.2-3.08-0.63-4.56-1.28c-0.53-0.28-1.04-0.66-1.53-1.14c-0.5-0.48-0.89-1-1.17-1.57c-0.53-0.91-0.89-1.98-1.09-3.21
	c-0.2-1.23-0.25-2.53-0.15-3.9c0.1-1.38,0.34-2.78,0.73-4.21c0.39-1.43,0.91-2.82,1.57-4.16c0.66-1.35,1.44-2.61,2.34-3.78
	c0.9-1.17,1.92-2.18,3.05-3.01c0.36-0.28,0.76-0.51,1.19-0.67c0.43-0.16,0.86-0.27,1.29-0.33c0.44-0.06,0.87-0.09,1.29-0.09
	c0.43,0,0.82,0.03,1.19,0.09c0.53,0.06,1.06,0.16,1.61,0.3c0.55,0.14,1.08,0.31,1.59,0.5c0.52,0.19,1,0.42,1.46,0.67
	c0.46,0.25,0.87,0.53,1.23,0.84c0.69,0.55,1.17,1.14,1.46,1.79c0.28,0.65,0.48,1.38,0.58,2.19c0.02,0.42,0.03,0.9,0.02,1.43
	c-0.01,0.53-0.04,1.05-0.09,1.58c-0.05,0.53-0.11,1.03-0.18,1.52c-0.07,0.49-0.15,0.89-0.23,1.22
	C144.33,104.49,144.16,104.76,143.97,104.89z"/>
<path class="st4" d="M168.7,98.05c1.06-0.24,2.18-0.47,3.34-0.67c1.16-0.2,2.36-0.38,3.58-0.53c1.23-0.15,2.45-0.25,3.66-0.29
	c1.15-0.02,1.89,0.43,2.22,1.34c0.26,0.49,0.45,0.93,0.55,1.32c0.1,0.39,0.2,0.82,0.3,1.29c0.08,0.53,0.04,0.88-0.12,1.06
	c-0.16,0.18-0.54,0.31-1.12,0.39c-1.22,0.14-2.47,0.28-3.77,0.43c-1.3,0.14-2.66,0.31-4.1,0.52c-0.3,0.91-0.59,1.86-0.85,2.84
	c-0.26,0.98-0.56,2.01-0.88,3.08c0.61-0.08,1.22-0.14,1.82-0.18c0.61-0.04,1.26-0.07,1.94-0.09c0.57-0.02,1.01,0.03,1.34,0.15
	c0.32,0.12,0.6,0.39,0.82,0.79c0.24,0.4,0.43,0.81,0.56,1.2c0.13,0.39,0.25,0.79,0.35,1.2c0.16,0.47,0.18,0.78,0.05,0.94
	s-0.48,0.3-1.05,0.42c-1.22,0.22-2.46,0.44-3.72,0.64s-2.49,0.42-3.66,0.67c-0.16,0.65-0.31,1.26-0.46,1.84
	c-0.14,0.58-0.29,1.15-0.46,1.72c0.95-0.16,1.86-0.29,2.72-0.39c0.86-0.1,1.8-0.18,2.81-0.24c0.57-0.04,1.01,0,1.32,0.12
	c0.31,0.12,0.58,0.37,0.81,0.73c0.24,0.4,0.43,0.79,0.56,1.14c0.13,0.35,0.28,0.71,0.44,1.08c0.1,0.41,0.1,0.68,0,0.84
	c-0.1,0.15-0.43,0.28-0.97,0.38c-1.3,0.24-2.61,0.5-3.95,0.76c-1.34,0.26-2.61,0.51-3.83,0.73c-0.81,0.2-1.42,0.25-1.84,0.14
	c-0.42-0.11-0.77-0.27-1.08-0.47c-0.34-0.22-0.67-0.45-0.99-0.68c-0.31-0.23-0.68-0.53-1.11-0.9c-0.34-0.28-0.61-0.62-0.81-1
	c-0.19-0.38-0.27-0.85-0.23-1.4l2.89-20.2C166.67,98.52,167.63,98.29,168.7,98.05z"/>
<path class="st4" d="M214.79,97c-0.93,0.09-1.89,0.19-2.89,0.29c-0.43,1.7-0.87,3.46-1.32,5.29c-0.46,1.82-0.9,3.63-1.32,5.42
	c-0.43,1.79-0.82,3.54-1.2,5.24c-0.38,1.7-0.7,3.29-0.99,4.77c-0.04,0.28-0.14,0.47-0.29,0.56c-0.15,0.09-0.36,0.13-0.62,0.12
	c-0.26-0.01-0.57-0.07-0.91-0.17c-0.34-0.1-0.73-0.21-1.15-0.34c-0.43-0.12-0.81-0.25-1.15-0.39s-0.63-0.31-0.87-0.52
	c-0.23-0.2-0.4-0.44-0.5-0.71s-0.11-0.6-0.03-0.99c0.06-0.97,0.18-2.17,0.36-3.58c0.18-1.42,0.4-2.92,0.65-4.5
	c0.25-1.58,0.53-3.17,0.84-4.78c0.3-1.61,0.61-3.1,0.91-4.48c-0.59,0.1-1.15,0.19-1.7,0.26s-1,0.16-1.37,0.26
	c-0.51,0.12-0.92,0.14-1.25,0.05c-0.32-0.09-0.69-0.35-1.09-0.77c-0.43-0.43-0.82-0.96-1.17-1.61c-0.35-0.65-0.64-1.19-0.87-1.64
	c-0.24-0.47-0.3-0.77-0.18-0.93c0.12-0.15,0.38-0.28,0.76-0.38c1.19-0.24,2.55-0.47,4.06-0.67c1.51-0.2,3.05-0.38,4.62-0.55
	c1.57-0.16,3.11-0.3,4.62-0.41c1.51-0.11,2.86-0.19,4.06-0.23c0.63,0,1.08,0.06,1.35,0.17c0.27,0.11,0.51,0.3,0.71,0.56
	c0.4,0.47,0.74,0.97,1,1.52c0.26,0.55,0.47,1.08,0.61,1.61c0.12,0.47,0.13,0.79,0.02,0.96c-0.11,0.17-0.48,0.28-1.11,0.32
	C216.58,96.82,215.72,96.91,214.79,97z"/>
<path class="st4" d="M234.52,117.4c0.41-0.07,0.82-0.09,1.23-0.06c0.41,0.03,0.81,0.1,1.19,0.21c0.37,0.11,0.71,0.27,1.02,0.47
	c1.7,1.03,3.19,1.7,4.45,2c1.27,0.3,2.18,0.23,2.75-0.21c0.22-0.14,0.27-0.34,0.14-0.58c-0.13-0.24-0.39-0.51-0.76-0.81
	c-0.37-0.29-0.84-0.62-1.4-0.97c-0.56-0.35-1.14-0.72-1.76-1.11c-0.62-0.39-1.24-0.78-1.85-1.19c-0.62-0.4-1.18-0.82-1.69-1.25
	c-0.55-0.45-1.04-0.95-1.47-1.5c-0.44-0.56-0.77-1.16-1.02-1.82c-0.24-0.66-0.37-1.36-0.4-2.11c-0.02-0.75,0.1-1.53,0.36-2.34
	c0.18-0.69,0.49-1.43,0.93-2.22c0.44-0.79,0.95-1.56,1.53-2.31c0.59-0.75,1.24-1.45,1.94-2.1c0.71-0.65,1.43-1.19,2.16-1.64
	c0.26-0.18,0.59-0.36,0.97-0.53c0.38-0.17,0.82-0.3,1.29-0.38c0.48-0.08,0.99-0.11,1.55-0.08c0.56,0.03,1.14,0.14,1.75,0.32
	c0.91,0.32,1.82,0.72,2.73,1.19c0.91,0.47,1.67,0.99,2.28,1.58c0.4,0.36,0.71,0.73,0.93,1.11c0.21,0.37,0.36,0.74,0.46,1.11
	c0.09,0.36,0.14,0.71,0.15,1.05c0.01,0.33,0.02,0.65,0.02,0.96c-0.06,0.55-0.16,1.14-0.3,1.79c-0.14,0.65-0.3,1.3-0.49,1.96
	c-0.18,0.66-0.39,1.29-0.61,1.9c-0.22,0.61-0.45,1.13-0.67,1.58c-0.22,0.4-0.47,0.66-0.73,0.76c-0.26,0.1-0.63,0.06-1.09-0.12
	c-2.75-0.97-4.03-2.3-3.83-3.98c0.02-0.34,0.09-0.74,0.2-1.2c0.11-0.46,0.22-0.91,0.33-1.37c0.11-0.46,0.21-0.89,0.29-1.31
	c0.08-0.41,0.11-0.75,0.08-1.02c-0.03-0.26-0.13-0.42-0.29-0.46c-0.16-0.04-0.44,0.07-0.82,0.33c-0.32,0.18-0.69,0.46-1.09,0.82
	c-0.41,0.37-0.8,0.78-1.17,1.25c-0.38,0.47-0.71,0.97-1,1.52c-0.29,0.55-0.49,1.09-0.59,1.64c-0.1,0.55-0.09,1.08,0.03,1.61
	c0.12,0.53,0.41,0.99,0.88,1.4c0.59,0.55,1.24,1.06,1.96,1.55c0.72,0.49,1.44,0.96,2.16,1.41c0.72,0.46,1.4,0.91,2.04,1.35
	s1.16,0.91,1.58,1.38c0.41,0.48,0.68,0.97,0.79,1.49c0.11,0.52,0.01,1.07-0.32,1.66c-0.2,0.42-0.49,0.88-0.85,1.37
	c-0.36,0.49-0.85,0.94-1.46,1.35c-0.61,0.42-1.35,0.76-2.22,1.05c-0.87,0.28-1.91,0.44-3.13,0.45c-1.62,0.04-3.2-0.25-4.74-0.87
	c-1.54-0.62-3.13-1.69-4.77-3.21c-0.87-0.75-1.33-1.31-1.37-1.67c0-0.38,0.19-0.69,0.58-0.91
	C233.73,117.58,234.12,117.47,234.52,117.4z"/>
</svg>
